# xmcd CD database file
#
# Track frame offsets:
#	150
#	12637
#	26205
#	39786
#	51499
#	62471
#	76266
#	90858
#	109094
#	122690
#	137325
#	151076
#	165779
#	178029
#	191353
#	202849
#	215938
#	230509
#	243687
#	255145
#
# Disc length: 3584 seconds
#
# Revision: 0
# Processed by: cddbd v1.5.2PL0 Copyright (c) Steve Scherf et al.
# Submitted via: CDex 1.70beta2
#
DISCID=f70dfe14
DTITLE=Django Reinhardt and Stéphane Grappelli - Les Rois du Swing Manouche 2
DYEAR=2009
DGENRE=Jazz
TTITLE0=Honeysuckle rose
TTITLE1=Crazy rythm
TTITLE2=Sweet Georgia Brown
TTITLE3=I've found a new baby
TTITLE4=Interprétation swing du 1er Mouvement
TTITLE5=Bricktop
TTITLE6=Minor swing
TTITLE7=Mabel
TTITLE8=My serenade
TTITLE9=Stephen's blues
TTITLE10=Sugar
TTITLE11=Sweet Georgia Brown
TTITLE12=Night and day
TTITLE13=My Sweet (take 1)
TTITLE14=J'attendrai (Tornerai)
TTITLE15=It had to be you
TTITLE16=Nocturne
TTITLE17=Billets doux
TTITLE18=Swing from Paris
TTITLE19=Them there eyes
EXTD=YEAR: 2009
EXTT0=
EXTT1=
EXTT2=
EXTT3=
EXTT4=
EXTT5=
EXTT6=
EXTT7=
EXTT8=
EXTT9=
EXTT10=
EXTT11=
EXTT12=
EXTT13=
EXTT14=
EXTT15=
EXTT16=
EXTT17=
EXTT18=
EXTT19=
PLAYORDER=
